<svg width="512" height="512" viewBox="0 0 512 512" fill="none" xmlns="http://www.w3.org/2000/svg">
  <rect width="512" height="512" fill="#000000"/>
  <!-- Meditation figure similar to our logo -->
  <g transform="translate(100, 50) scale(0.8)">
    <path
      d="M200 30c-10 0-19.3 5.6-23.9 14.5-4.4 8.3-10.6 15.4-18.2 20.7-8.1 5.7-14.1 14.5-16.4 24.4-2.2 9.3-6.7 17.9-13.2 24.8-6.7 7.1-10.5 16.8-10.5 26.7 0 9.3 3.3 18.1 9.2 25 7.3 8.6 12.4 18.9 14.8 30 2.1 9.5 7.9 17.7 16 22.9 6.5 4.1 12 9.7 16.1 16.3 4.6 7.4 12.6 12.2 21.4 12.7 0.9 0.1 1.8 0.1 2.8 0.1 0.9 0 1.8 0 2.8-0.1 8.8-0.5 16.8-5.3 21.4-12.7 4.1-6.6 9.6-12.1 16.1-16.3 8.1-5.1 13.9-13.4 16-22.9 2.4-11.1 7.6-21.4 14.8-30 5.9-6.9 9.2-15.7 9.2-25 0-9.9-3.8-19.5-10.5-26.7-6.5-6.9-10.9-15.4-13.2-24.8-2.3-9.9-8.3-18.7-16.4-24.4-7.6-5.3-13.9-12.5-18.2-20.7-4.5-8.8-13.8-14.5-23.9-14.5z"
      fill="#050505"
      stroke="#FFB533"
      stroke-width="2"
    />
    <!-- Body -->
    <path
      d="M195 260v110M205 260v110M175 370h50M140 170c10-10 30-10 40-10 10 0 30 0 40 10M160 150c0-10 10-20 30-20s30 10 30 20M150 190c0 20 20 40 50 40s50-20 50-40M175 310c-30-10-40-90-40-120M225 310c30-10 40-90 40-120"
      stroke="#FFC800"
      stroke-width="3"
      fill="none"
    />
  </g>

  <!-- "WWW" text at the bottom -->
  <text x="256" y="430" text-anchor="middle" font-family="Arial, sans-serif" font-weight="bold" font-size="60" fill="#FFB533">WWW</text>

  <!-- Decorative mountain-like elements to represent Kashmir -->
  <path d="M0 380L100 310L200 360L300 290L400 350L512 300V512H0V380Z" fill="#090926" stroke="none"/>
  <path d="M0 410L80 360L180 390L280 340L380 400L512 350V512H0V410Z" fill="#050513" stroke="none"/>

  <!-- Glowing elements -->
  <circle cx="150" cy="200" r="10" fill="#FFB533" fill-opacity="0.3"/>
  <circle cx="350" cy="180" r="15" fill="#FFB533" fill-opacity="0.2"/>
  <circle cx="250" cy="140" r="8" fill="#FFB533" fill-opacity="0.4"/>
</svg>
